<svg width="175" height="52" viewBox="0 0 175 52" fill="none" xmlns="http://www.w3.org/2000/svg">
<path d="M117.515 50.3182H112.892C111.953 50.3182 111.233 49.8124 111.163 48.8734L111.09 47.063C107.766 49.7431 103.794 51.1875 99.6055 51.1875C91.519 51.1875 88.199 46.0552 88.199 38.239V16.8433C88.199 15.6129 88.9206 15.1785 90.0723 15.1785H95.1295C96.286 15.1785 96.9367 15.5383 96.9367 16.8433V36.7187C96.9367 40.699 97.9471 43.4462 102.281 43.4462C105.021 43.4462 108.49 41.929 110.656 39.9757V16.8433C110.656 15.6129 111.307 15.1785 112.459 15.1785H117.586C118.743 15.1785 119.394 15.5383 119.394 16.8433V48.2944C119.394 49.8124 118.957 50.3182 117.515 50.3182Z" fill="black" fill-opacity="0.49"/>
<path d="M0 16.6215C0 15.7558 0.434084 15.1767 1.29919 15.1767H7.40786C8.27384 15.1767 8.77925 15.6834 8.77925 16.6215V48.51C8.77925 49.8124 8.19902 50.3182 6.97422 50.3182H1.87811C0.582425 50.3182 0 49.8124 0 48.51V16.6215Z" fill="black" fill-opacity="0.49"/>
<path d="M128.428 16.6215C128.428 15.7558 128.865 15.1767 129.729 15.1767H135.837C136.705 15.1767 137.21 15.6834 137.21 16.6215V48.51C137.21 49.8124 136.632 50.3182 135.403 50.3182H130.306C129.01 50.3182 128.428 49.8124 128.428 48.51V16.6215Z" fill="black" fill-opacity="0.49"/>
<path d="M47.4866 50.3182H42.2881C40.9889 50.3182 40.5562 49.6682 40.5562 48.4368V28.7604C40.5562 24.7841 39.4749 21.962 35.0676 21.962C32.2504 21.962 28.786 23.4839 26.5478 25.4342V48.5096C26.5478 49.7427 26.0419 50.3178 24.8167 50.3178H19.5434C18.4599 50.3178 17.8092 49.7427 17.8092 48.5824V16.9937C17.8092 15.8355 18.3181 15.1855 19.616 15.1855H24.3074C25.3177 15.1855 25.9715 15.4735 26.0415 16.5584L26.1128 18.4893C29.4372 15.8149 33.6253 14.2969 37.8138 14.2969C45.9013 14.2969 49.2221 19.3595 49.2221 27.2441V48.4368C49.2217 49.6682 48.7898 50.3182 47.4866 50.3182Z" fill="black" fill-opacity="0.49"/>
<path d="M73.2223 5.30628C73.2223 2.37588 70.8528 0 67.9271 0C65.0031 0 62.6301 2.37588 62.6301 5.30628C62.6301 8.23668 65.0036 10.6099 67.9271 10.6099C70.8528 10.6099 73.2223 8.23668 73.2223 5.30628Z" fill="black" fill-opacity="0.49"/>
<path d="M80.7588 15.1767C81.6248 15.1767 82.1306 15.4647 82.1306 16.4063V21.5004C82.1306 22.3679 81.5539 22.8746 80.6857 22.8746H72.3169V48.5096C72.3169 49.8119 71.7398 50.3178 70.4388 50.3178H65.414C64.114 50.3178 63.5377 49.8119 63.5377 48.5096V22.8746H55.1667C54.3007 22.8746 53.7231 22.3679 53.7231 21.5004V16.4063C53.7231 15.4647 54.2281 15.1767 55.0954 15.1767H80.7588Z" fill="black" fill-opacity="0.49"/>
<path d="M162.831 5.30628C162.831 2.37588 160.46 0 157.534 0C154.61 0 152.239 2.37588 152.239 5.30628C152.239 8.23668 154.61 10.6099 157.534 10.6099C160.46 10.6099 162.831 8.23668 162.831 5.30628Z" fill="black" fill-opacity="0.49"/>
<path d="M170.367 15.1767C171.232 15.1767 171.736 15.4647 171.736 16.4063V21.5004C171.736 22.3679 171.161 22.8746 170.292 22.8746H161.923V48.5096C161.923 49.8119 161.348 50.3178 160.047 50.3178H155.021C153.72 50.3178 153.144 49.8119 153.144 48.5096L153.143 22.8746H144.776C143.908 22.8746 143.33 22.3679 143.33 21.5004V16.4063C143.33 15.4647 143.837 15.1767 144.701 15.1767H170.367Z" fill="black" fill-opacity="0.49"/>
<path d="M172.655 45.8597C173.932 45.8597 175 46.8675 175 48.1896C175 49.5349 173.932 50.5453 172.655 50.5453C171.373 50.5453 170.298 49.5349 170.298 48.1896C170.299 46.8675 171.374 45.8597 172.655 45.8597ZM172.655 50.2016C173.738 50.2016 174.576 49.3376 174.576 48.1896C174.576 47.0692 173.738 46.2034 172.655 46.2034C171.561 46.2034 170.722 47.0696 170.722 48.1896C170.722 49.3381 171.561 50.2016 172.655 50.2016ZM171.743 46.8303H172.798C173.449 46.8303 173.756 47.0871 173.756 47.6145C173.756 48.1067 173.445 48.3167 173.037 48.3592L173.819 49.5691H173.362L172.618 48.3895H172.167V49.5691H171.742V46.8303H171.743ZM172.167 48.0454H172.612C172.988 48.0454 173.331 48.0278 173.331 47.5956C173.331 47.2314 173.019 47.1761 172.731 47.1761H172.168V48.0454H172.167Z" fill="black" fill-opacity="0.49"/>
</svg>
